<?xml version="1.0" encoding="iso-8859-1"?>
<!-- Generator: Adobe Illustrator 16.0.0, SVG Export Plug-In . SVG Version: 6.00 Build 0)  -->
<!DOCTYPE svg PUBLIC "-//W3C//DTD SVG 1.1//EN" "http://www.w3.org/Graphics/SVG/1.1/DTD/svg11.dtd">
<svg xmlns="http://www.w3.org/2000/svg" xmlns:xlink="http://www.w3.org/1999/xlink" version="1.1" id="Capa_1" x="0px" y="0px" width="512px" height="512px" viewBox="0 0 424.488 424.488" style="enable-background:new 0 0 424.488 424.488;" xml:space="preserve">
<g>
	<g id="iconos_59_">
		<path d="M322.954,278.833c12.995,2.343,27.874-10.834,34.004-30.839c2.993-9.773,3.271-19.345,1.453-27.263    c-10.098,5.192-21.927,10.566-35.218,15.635c-5.365,2.046-10.959,4.006-16.792,5.891c-28.229,9.094-61.688,15.931-99.144,15.931    c-36.605,0-69.338-7.277-97.06-17.126c-6.225-2.209-12.145-4.543-17.834-6.962c-12.393-5.269-23.61-10.863-33.268-16.343    c-2.677,8.415-2.716,19.202,0.669,30.237c5.977,19.526,20.301,32.531,33.067,30.973c0.641,23.811,2.075,45.432,5.068,51.838    c7.574,16.237,72.513,85.164,82.075,89.945s57.375,5.183,65.742,0s67.731-72.713,73.507-89.945    C321.491,324.025,322.523,302.481,322.954,278.833z" fill="#FFFFFF"/>
		<g>
			<path d="M380.339,143.438c-5.9,9.562-19.986,23.629-51.322,36.787c-0.603,0.249-7.335,3.184-9.419-2.19     c-2.295-5.9,1.31-9.715,3.748-10.729c30.734-12.9,33.728-25.953,38.24-32.063c-5.039-19.498-18.111-79.904-96.753-104.489     v112.685c0,15.816-12.871,28.688-28.688,28.688h-47.812c-15.816,0-28.688-12.871-28.688-28.688V30.332     c-66.852,19.135-90.423,79.771-97.088,106.029c0.258,0.287,0.545,0.555,0.727,0.908c0.029,0.058,0.363,0.641,1.033,1.578     c3.385,4.762,16.18,19.813,51.102,34.482c2.438,1.014,5.451,5.269,2.543,11.36c-3.29,6.875-8.367,4.858-8.969,4.609     c-31.595-13.263-46.35-28.707-52.699-36.28H25.771v20.32c0,0,16.811,14.468,45.422,29.826c6.521,3.5,13.607,7.019,21.315,10.451     c2.601,1.157,5.269,2.305,8.004,3.434c29.356,12.087,65.828,22.013,106.947,22.013c41.186,0,91.819-14.22,121.195-24.996     c2.897-1.062,5.747-2.143,8.501-3.232c9.477-3.768,15.854-7.669,23.505-11.465c25.569-12.699,38.059-24.059,38.059-24.059     v-31.872H380.339z" fill="#FFFFFF"/>
			<path d="M188.333,153h47.812c5.278,0,9.562-4.284,9.562-9.562V25.828V9.562c0-5.278-4.284-9.562-9.562-9.562h-47.812     c-5.278,0-9.562,4.284-9.562,9.562v17.681v116.194C178.771,148.716,183.055,153,188.333,153z" fill="#FFFFFF"/>
		</g>
	</g>
</g>
<g>
</g>
<g>
</g>
<g>
</g>
<g>
</g>
<g>
</g>
<g>
</g>
<g>
</g>
<g>
</g>
<g>
</g>
<g>
</g>
<g>
</g>
<g>
</g>
<g>
</g>
<g>
</g>
<g>
</g>
</svg>
