<?xml version="1.0" encoding="iso-8859-1"?>
<!-- Generator: Adobe Illustrator 19.0.0, SVG Export Plug-In . SVG Version: 6.00 Build 0)  -->
<svg xmlns="http://www.w3.org/2000/svg" xmlns:xlink="http://www.w3.org/1999/xlink" version="1.1" id="Capa_1" x="0px" y="0px" viewBox="0 0 512 512" style="enable-background:new 0 0 512 512;" xml:space="preserve" width="512px" height="512px">
<g>
	<g>
		<path d="M437,121c-24.814,0-45,20.186-45,45c0,24.814,20.186,45,45,45c24.814,0,45-20.186,45-45C482,141.186,461.814,121,437,121z    " fill="#FFFFFF"/>
	</g>
</g>
<g>
	<g>
		<path d="M256,0c-74.443,0-136,48.109-136,106s61.557,105,136,105s136-47.109,136-105S330.443,0,256,0z M195,121    c-8.284,0-15-6.716-15-15s6.716-15,15-15s15,6.716,15,15S203.284,121,195,121z M256,121c-8.284,0-15-6.716-15-15s6.716-15,15-15    s15,6.716,15,15S264.284,121,256,121z M317,121c-8.284,0-15-6.716-15-15s6.716-15,15-15s15,6.716,15,15S325.284,121,317,121z" fill="#FFFFFF"/>
	</g>
</g>
<g>
	<g>
		<path d="M494.299,213.807c-10.638,12.726-25.157,22.088-41.975,25.594C452.293,239.96,452,240.434,452,241v30h-75    c-16.5,0-30,13.5-30,30s13.5,30,30,30h60c8.401,0,15,6.599,15,15s-6.599,15-15,15h-45c-24.901,0-45,20.099-45,45v76    c0,16.5,13.5,30,30,30s30-13.5,30-30v-61h60c24.901,0,45-20.099,45-45V241C512,228.906,504.668,218.544,494.299,213.807z" fill="#FFFFFF"/>
	</g>
</g>
<g>
	<g>
		<path d="M75,121c-24.814,0-45,20.186-45,45c0,24.814,20.186,45,45,45s45-20.186,45-45C120,141.186,99.814,121,75,121z" fill="#FFFFFF"/>
	</g>
</g>
<g>
	<g>
		<path d="M120,361H75c-8.401,0-15-6.599-15-15s6.599-15,15-15h60c16.5,0,30-13.5,30-30s-13.5-30-30-30H60v-30    c0-0.566-0.293-1.04-0.324-1.599c-16.818-3.506-31.337-12.869-41.975-25.594C7.332,218.544,0,228.906,0,241v135    c0,24.901,20.099,45,45,45h60v61c0,16.5,13.5,30,30,30s30-13.5,30-30v-76C165,381.099,144.901,361,120,361z" fill="#FFFFFF"/>
	</g>
</g>
<g>
	<g>
		<path d="M325.333,331H186.667c-4.319,7.403-9.981,13.942-16.935,18.896c3.763,3.34,7.154,7.079,10.184,11.104H241v121h-16    c-8.291,0-15,6.709-15,15c0,8.291,6.709,15,15,15h62c8.291,0,15-6.709,15-15c0-8.291-6.709-15-15-15h-16V361h61.084    c3.03-4.025,6.422-7.764,10.184-11.104C335.314,344.941,329.652,338.402,325.333,331z" fill="#FFFFFF"/>
	</g>
</g>
<g>
</g>
<g>
</g>
<g>
</g>
<g>
</g>
<g>
</g>
<g>
</g>
<g>
</g>
<g>
</g>
<g>
</g>
<g>
</g>
<g>
</g>
<g>
</g>
<g>
</g>
<g>
</g>
<g>
</g>
</svg>
