<?xml version="1.0" encoding="iso-8859-1"?>
<!-- Generator: Adobe Illustrator 19.0.0, SVG Export Plug-In . SVG Version: 6.00 Build 0)  -->
<svg xmlns="http://www.w3.org/2000/svg" xmlns:xlink="http://www.w3.org/1999/xlink" version="1.1" id="Capa_1" x="0px" y="0px" viewBox="0 0 512 512" style="enable-background:new 0 0 512 512;" xml:space="preserve" width="512px" height="512px">
<g>
	<g>
		<path d="M482,391H30c-16.569,0-30,13.431-30,30c0,16.567,13.431,30,30,30h452c16.569,0,30-13.433,30-30    C512,404.431,498.569,391,482,391z" fill="#FFFFFF"/>
	</g>
</g>
<g>
	<g>
		<path d="M391,136.308V196c0,8.291-6.709,15-15,15c-8.291,0-15-6.709-15-15v-78.928c-9.591-5.074-19.651-9.333-30-12.997V226    c0,8.291-6.709,15-15,15c-8.291,0-15-6.709-15-15V76c0-8.276-6.724-15-15-15h-60c-8.276,0-15,6.724-15,15v150    c0,8.291-6.709,15-15,15s-15-6.709-15-15V104.076c-10.349,3.664-20.409,7.923-30,12.997V196c0,8.291-6.709,15-15,15    s-15-6.709-15-15v-59.692C66.44,177.364,31,242.459,31,316v45h450v-45C481,242.459,445.56,177.364,391,136.308z" fill="#FFFFFF"/>
	</g>
</g>
<g>
</g>
<g>
</g>
<g>
</g>
<g>
</g>
<g>
</g>
<g>
</g>
<g>
</g>
<g>
</g>
<g>
</g>
<g>
</g>
<g>
</g>
<g>
</g>
<g>
</g>
<g>
</g>
<g>
</g>
</svg>
